<svg width="11" height="11" viewBox="0 0 11 11" fill="none" xmlns="http://www.w3.org/2000/svg">
<g clip-path="url(#clip0_1_1236)">
<rect width="11" height="11" fill="#1A1A1A"/>
<path d="M8.70833 5.04175H2.29167C1.78541 5.04175 1.375 5.45215 1.375 5.95841V9.16675C1.375 9.67301 1.78541 10.0834 2.29167 10.0834H8.70833C9.21459 10.0834 9.625 9.67301 9.625 9.16675V5.95841C9.625 5.45215 9.21459 5.04175 8.70833 5.04175Z" stroke="white" stroke-width="0.916667" stroke-linecap="round" stroke-linejoin="round"/>
<path d="M3.20837 5.04175V3.20841C3.20837 2.60063 3.44982 2.01773 3.87959 1.58796C4.30936 1.15819 4.89225 0.916748 5.50004 0.916748C6.10783 0.916748 6.69072 1.15819 7.12049 1.58796C7.55026 2.01773 7.79171 2.60063 7.79171 3.20841V5.04175" stroke="white" stroke-width="0.916667" stroke-linecap="round" stroke-linejoin="round"/>
</g>
<defs>
<clipPath id="clip0_1_1236">
<rect width="11" height="11" fill="white"/>
</clipPath>
</defs>
</svg>
