<svg width="32" height="32" viewBox="0 0 32 32" fill="none" xmlns="http://www.w3.org/2000/svg">
<path d="M31.2749 4.34277C27.4022 4.34277 21.9311 4.66681 19.1352 7.46123C17.9247 8.67174 17.3202 10.6451 17.4771 12.8786C17.4975 13.1736 17.6937 13.425 17.9756 13.518C18.256 13.6096 18.5641 13.5238 18.7559 13.2986C20.3108 11.4691 22.2435 10.0029 24.5046 8.94059C24.6964 8.84905 24.9231 8.84176 25.1295 8.91444C25.3111 8.97983 25.4535 9.10333 25.5276 9.26176C25.6816 9.5873 25.6322 10.016 25.1207 10.2572C25.0917 10.2717 25.0655 10.2906 25.0365 10.3037C25.0263 10.308 25.0147 10.3066 25.006 10.311C19.4346 12.9296 16.6954 17.4983 15.4514 22.1963C14.5446 16.314 12.6294 12.851 10.8202 10.7251C9.51095 9.02785 8.22341 8.1283 7.47943 7.61974C7.34136 7.52526 6.92435 7.24046 6.7514 7.06752C6.46803 6.78415 6.46803 6.32348 6.7514 6.04011C7.03477 5.75817 7.49687 5.75817 7.81218 6.07206C7.88922 6.14038 8.01272 6.22757 8.16966 6.33219L8.29902 6.41938C9.35108 7.14013 11.31 8.47849 13.0479 11.3601C13.2034 11.6173 13.5042 11.7554 13.7963 11.7001C14.0928 11.6478 14.3252 11.4197 14.3834 11.1247C14.7627 9.18765 14.5927 6.31326 12.8649 4.58547C10.069 1.79248 4.59789 1.46844 0.726671 1.46844C0.32553 1.46838 0 1.79391 0 2.19498C0 6.06763 0.324032 11.5388 3.11846 14.3347C4.28387 15.5001 6.08147 16.0233 7.86736 16.0233C9.32486 16.0233 10.7533 15.6585 11.8476 15.0264C13.3399 18.1187 14.5316 22.7383 14.5316 29.805C14.5316 30.2061 14.8571 30.5316 15.2582 30.5316C15.6592 30.5316 15.9848 30.2061 15.9848 29.805C15.9848 25.8626 16.6605 21.1311 19.173 17.2366C20.18 18.2204 21.9137 18.8438 23.8347 18.9019C23.9306 18.9049 24.0251 18.9063 24.1195 18.9063C26.0711 18.9063 27.796 18.2945 28.8815 17.2075C31.6773 14.4117 31.9999 8.94053 31.9999 5.06781C32.0015 4.66681 31.6774 4.34277 31.2749 4.34277Z" fill="#00B307"/>
</svg>
